<svg width="37" height="35" viewBox="0 0 37 35" fill="none" xmlns="http://www.w3.org/2000/svg">
<path d="M8.85473 31.5079C4.40236 29.4127 -1.70876 19.3905 4.92616 8.98413C9.55315 2.43651 14.8785 2 17.7595 2C25.0055 2 29.3706 5.66667 32.077 9.68254C36.7912 17.627 33.8448 24.873 31.8151 27.5794C30.5928 29.209 28.323 31.6607 24.0452 30.8968C19.1563 30.0238 18.6325 25.2513 18.4579 24.2619" stroke="#021C63" stroke-width="2.85"/>
<path d="M11.1246 14.6587C11.1537 16.4338 11.9103 20.0565 13.8309 21.5555C17.4103 24.3492 20.7859 22.8359 22.0373 21.992C23.2886 21.1481 25.1976 18.0111 24.9182 14.6587" stroke="#021C63" stroke-width="2.85"/>
<circle cx="9.02931" cy="31.6826" r="3.31746" fill="#021C63"/>
<circle cx="11.4738" cy="14.5715" r="3.31746" fill="#021C63"/>
<circle cx="24.569" cy="14.5715" r="3.31746" fill="#021C63"/>
</svg>
